<svg width="157" height="42" viewBox="0 0 157 42" fill="none" xmlns="http://www.w3.org/2000/svg">
<rect width="157" height="42" rx="6" fill="#34C759"/>
<path d="M20.3835 18.2557C20.322 18.0047 20.2249 17.7846 20.0923 17.5952C19.9598 17.401 19.794 17.2377 19.5952 17.1051C19.401 16.9678 19.1738 16.866 18.9134 16.7997C18.6577 16.7287 18.3759 16.6932 18.0682 16.6932C17.4053 16.6932 16.8395 16.8518 16.3707 17.169C15.9067 17.4863 15.5516 17.9432 15.3054 18.5398C15.0639 19.1364 14.9432 19.8561 14.9432 20.6989C14.9432 21.5511 15.0592 22.2803 15.2912 22.8864C15.5232 23.4924 15.8688 23.9564 16.3281 24.2784C16.7874 24.6004 17.358 24.7614 18.0398 24.7614C18.6411 24.7614 19.1406 24.6738 19.5384 24.4986C19.9408 24.3234 20.2415 24.0748 20.4403 23.7528C20.6392 23.4309 20.7386 23.0521 20.7386 22.6165L21.4205 22.6875H18.0966V19.875H24.5455V21.892C24.5455 23.2178 24.2637 24.3518 23.7003 25.294C23.1416 26.2315 22.3698 26.9512 21.3849 27.4531C20.4048 27.9503 19.2803 28.1989 18.0114 28.1989C16.5956 28.1989 15.3527 27.8982 14.2827 27.2969C13.2126 26.6955 12.3769 25.8385 11.7756 24.7259C11.179 23.6132 10.8807 22.2898 10.8807 20.7557C10.8807 19.553 11.063 18.4877 11.4276 17.5597C11.7969 16.6316 12.3082 15.848 12.9616 15.2088C13.6151 14.5649 14.3703 14.0795 15.2273 13.7528C16.0843 13.4214 17.0028 13.2557 17.983 13.2557C18.8447 13.2557 19.6449 13.3788 20.3835 13.625C21.1269 13.8665 21.7827 14.2121 22.3509 14.6619C22.9238 15.107 23.3854 15.6349 23.7358 16.2457C24.0862 16.8565 24.2992 17.5265 24.375 18.2557H20.3835ZM35.8327 18.2557C35.7712 18.0047 35.6741 17.7846 35.5415 17.5952C35.409 17.401 35.2433 17.2377 35.0444 17.1051C34.8503 16.9678 34.623 16.866 34.3626 16.7997C34.1069 16.7287 33.8252 16.6932 33.5174 16.6932C32.8545 16.6932 32.2887 16.8518 31.82 17.169C31.3559 17.4863 31.0008 17.9432 30.7546 18.5398C30.5131 19.1364 30.3924 19.8561 30.3924 20.6989C30.3924 21.5511 30.5084 22.2803 30.7404 22.8864C30.9724 23.4924 31.3181 23.9564 31.7773 24.2784C32.2366 24.6004 32.8072 24.7614 33.489 24.7614C34.0903 24.7614 34.5898 24.6738 34.9876 24.4986C35.39 24.3234 35.6907 24.0748 35.8896 23.7528C36.0884 23.4309 36.1879 23.0521 36.1879 22.6165L36.8697 22.6875H33.5458V19.875H39.9947V21.892C39.9947 23.2178 39.713 24.3518 39.1495 25.294C38.5908 26.2315 37.819 26.9512 36.8342 27.4531C35.854 27.9503 34.7295 28.1989 33.4606 28.1989C32.0449 28.1989 30.802 27.8982 29.7319 27.2969C28.6618 26.6955 27.8261 25.8385 27.2248 24.7259C26.6282 23.6132 26.3299 22.2898 26.3299 20.7557C26.3299 19.553 26.5122 18.4877 26.8768 17.5597C27.2461 16.6316 27.7575 15.848 28.4109 15.2088C29.0643 14.5649 29.8195 14.0795 30.6765 13.7528C31.5335 13.4214 32.4521 13.2557 33.4322 13.2557C34.2939 13.2557 35.0941 13.3788 35.8327 13.625C36.5761 13.8665 37.2319 14.2121 37.8001 14.6619C38.373 15.107 38.8346 15.6349 39.185 16.2457C39.5354 16.8565 39.7485 17.5265 39.8242 18.2557H35.8327ZM44.0234 28.2273C43.4742 28.2273 43.0031 28.0355 42.6101 27.652C42.2218 27.2637 42.0301 26.7926 42.0348 26.2386C42.0301 25.6989 42.2218 25.2372 42.6101 24.8537C43.0031 24.4702 43.4742 24.2784 44.0234 24.2784C44.5443 24.2784 45.0036 24.4702 45.4013 24.8537C45.8037 25.2372 46.0073 25.6989 46.0121 26.2386C46.0073 26.608 45.9103 26.9441 45.7209 27.2472C45.5362 27.5455 45.2947 27.7846 44.9964 27.9645C44.6982 28.1397 44.3738 28.2273 44.0234 28.2273ZM47.603 31.4943V24.9602H48.6257C48.9666 24.7519 49.2744 24.4583 49.549 24.0795C49.8284 23.7008 50.0651 23.1586 50.2592 22.4531C50.4581 21.7476 50.6049 20.803 50.6996 19.6193L51.1825 13.4545H61.4666V24.9602H63.0007V31.4943H59.1939V28H51.4098V31.4943H47.603ZM53.1428 24.9602H57.6598V16.6364H54.7337L54.5064 19.6193C54.4401 20.5095 54.3383 21.2884 54.201 21.956C54.0684 22.6188 53.9098 23.1965 53.7251 23.6889C53.5452 24.1766 53.3511 24.6004 53.1428 24.9602ZM69.6484 28.1989C68.4647 28.1989 67.4515 27.9645 66.6087 27.4957C65.7659 27.0223 65.1196 26.3641 64.6697 25.5213C64.2199 24.6738 63.995 23.6913 63.995 22.5739C63.995 21.4564 64.2199 20.4763 64.6697 19.6335C65.1196 18.786 65.7659 18.1278 66.6087 17.6591C67.4515 17.1856 68.4647 16.9489 69.6484 16.9489C70.8321 16.9489 71.8454 17.1856 72.6882 17.6591C73.531 18.1278 74.1773 18.786 74.6271 19.6335C75.0769 20.4763 75.3018 21.4564 75.3018 22.5739C75.3018 23.6913 75.0769 24.6738 74.6271 25.5213C74.1773 26.3641 73.531 27.0223 72.6882 27.4957C71.8454 27.9645 70.8321 28.1989 69.6484 28.1989ZM69.6768 25.3011C70.0083 25.3011 70.2947 25.1899 70.5362 24.9673C70.7777 24.7448 70.9647 24.4276 71.0973 24.0156C71.2299 23.6037 71.2962 23.1136 71.2962 22.5455C71.2962 21.9725 71.2299 21.4825 71.0973 21.0753C70.9647 20.6634 70.7777 20.3461 70.5362 20.1236C70.2947 19.901 70.0083 19.7898 69.6768 19.7898C69.3265 19.7898 69.0258 19.901 68.7749 20.1236C68.5239 20.3461 68.3321 20.6634 68.1996 21.0753C68.067 21.4825 68.0007 21.9725 68.0007 22.5455C68.0007 23.1136 68.067 23.6037 68.1996 24.0156C68.3321 24.4276 68.5239 24.7448 68.7749 24.9673C69.0258 25.1899 69.3265 25.3011 69.6768 25.3011ZM82.1484 28.1989C80.9647 28.1989 79.9515 27.9645 79.1087 27.4957C78.2659 27.0223 77.6196 26.3641 77.1697 25.5213C76.7199 24.6738 76.495 23.6913 76.495 22.5739C76.495 21.4564 76.7199 20.4763 77.1697 19.6335C77.6196 18.786 78.2659 18.1278 79.1087 17.6591C79.9515 17.1856 80.9647 16.9489 82.1484 16.9489C83.2185 16.9489 84.1442 17.143 84.9254 17.5312C85.7114 17.9148 86.3198 18.4593 86.7507 19.1648C87.1816 19.8655 87.3994 20.6894 87.4041 21.6364H83.7678C83.7157 21.0634 83.55 20.6278 83.2706 20.3295C82.996 20.0265 82.6409 19.875 82.2053 19.875C81.8643 19.875 81.5661 19.9744 81.3104 20.1733C81.0547 20.3674 80.8558 20.6634 80.7138 21.0611C80.5717 21.4541 80.5007 21.9489 80.5007 22.5455C80.5007 23.142 80.5717 23.6392 80.7138 24.0369C80.8558 24.4299 81.0547 24.7259 81.3104 24.9247C81.5661 25.1188 81.8643 25.2159 82.2053 25.2159C82.4941 25.2159 82.7498 25.1496 82.9723 25.017C83.1948 24.8797 83.3748 24.6809 83.5121 24.4205C83.6541 24.1553 83.7393 23.8333 83.7678 23.4545H87.4041C87.3899 24.4157 87.1697 25.2538 86.7436 25.9688C86.3175 26.679 85.7138 27.2282 84.9325 27.6165C84.156 28.0047 83.228 28.1989 82.1484 28.1989ZM88.3647 20.017V17.0909H98.9329V20.017H95.467V28H91.7738V20.017H88.3647ZM103.155 28.1705C102.459 28.1705 101.844 28.0568 101.309 27.8295C100.778 27.5975 100.362 27.2472 100.059 26.7784C99.7556 26.3097 99.604 25.7131 99.604 24.9886C99.604 24.392 99.7058 23.883 99.9094 23.4616C100.113 23.0355 100.397 22.6875 100.762 22.4176C101.126 22.1477 101.55 21.9418 102.033 21.7997C102.521 21.6577 103.046 21.5653 103.61 21.5227C104.221 21.4754 104.711 21.4186 105.08 21.3523C105.454 21.2812 105.724 21.1842 105.89 21.0611C106.055 20.9332 106.138 20.7652 106.138 20.5568V20.5284C106.138 20.2443 106.029 20.0265 105.811 19.875C105.594 19.7235 105.314 19.6477 104.973 19.6477C104.599 19.6477 104.294 19.7306 104.057 19.8963C103.825 20.0573 103.685 20.3059 103.638 20.642H100.03C100.078 19.9792 100.288 19.3684 100.662 18.8097C101.041 18.2462 101.593 17.7964 102.317 17.4602C103.042 17.1193 103.946 16.9489 105.03 16.9489C105.811 16.9489 106.512 17.0412 107.132 17.2259C107.753 17.4058 108.281 17.6591 108.716 17.9858C109.152 18.3078 109.483 18.6866 109.711 19.1222C109.943 19.553 110.059 20.0218 110.059 20.5284V28H106.394V26.4659H106.309C106.091 26.8731 105.826 27.2022 105.513 27.4531C105.205 27.7041 104.853 27.8864 104.455 28C104.062 28.1136 103.629 28.1705 103.155 28.1705ZM104.434 25.6989C104.732 25.6989 105.011 25.6373 105.272 25.5142C105.537 25.3911 105.752 25.2135 105.918 24.9815C106.084 24.7495 106.167 24.4678 106.167 24.1364V23.2273C106.062 23.2699 105.951 23.3101 105.833 23.348C105.719 23.3859 105.596 23.4214 105.463 23.4545C105.336 23.4877 105.198 23.5185 105.051 23.5469C104.909 23.5753 104.76 23.6013 104.604 23.625C104.301 23.6723 104.052 23.7505 103.858 23.8594C103.669 23.9635 103.527 24.0938 103.432 24.25C103.342 24.4015 103.297 24.572 103.297 24.7614C103.297 25.0644 103.404 25.2964 103.617 25.4574C103.83 25.6184 104.102 25.6989 104.434 25.6989ZM111.932 28V17.0909H116.705C118.168 17.0909 119.318 17.3395 120.156 17.8366C120.999 18.3338 121.42 19.0795 121.42 20.0739C121.42 20.6136 121.184 21.0919 120.71 21.5085C120.241 21.9252 119.56 22.2045 118.665 22.3466C119.489 22.3845 120.156 22.536 120.668 22.8011C121.184 23.0616 121.56 23.3883 121.797 23.7812C122.038 24.1695 122.159 24.572 122.159 24.9886C122.159 25.6515 121.979 26.2079 121.619 26.6577C121.259 27.1027 120.729 27.4389 120.028 27.6662C119.328 27.8887 118.466 28 117.443 28H111.932ZM115.568 25.2443H117.443C117.76 25.2443 118.009 25.1686 118.189 25.017C118.374 24.8655 118.466 24.6572 118.466 24.392C118.466 24.1174 118.374 23.902 118.189 23.7457C118.009 23.5895 117.76 23.5114 117.443 23.5114H115.568V25.2443ZM115.568 21.5227H116.818C117.022 21.5227 117.195 21.492 117.337 21.4304C117.479 21.3641 117.588 21.2718 117.663 21.1534C117.744 21.035 117.784 20.893 117.784 20.7273C117.784 20.4763 117.687 20.2822 117.493 20.1449C117.304 20.0028 117.041 19.9318 116.705 19.9318H115.568V21.5227ZM123.67 28V17.0909H127.591V20.983H128.272L130.602 17.0909H135.091L131.596 22.6023L135.119 28H130.574L128.471 24.6193H127.591V28H123.67ZM139.073 28.1705C138.377 28.1705 137.762 28.0568 137.227 27.8295C136.696 27.5975 136.28 27.2472 135.977 26.7784C135.674 26.3097 135.522 25.7131 135.522 24.9886C135.522 24.392 135.624 23.883 135.827 23.4616C136.031 23.0355 136.315 22.6875 136.68 22.4176C137.044 22.1477 137.468 21.9418 137.951 21.7997C138.439 21.6577 138.964 21.5653 139.528 21.5227C140.138 21.4754 140.629 21.4186 140.998 21.3523C141.372 21.2812 141.642 21.1842 141.808 21.0611C141.973 20.9332 142.056 20.7652 142.056 20.5568V20.5284C142.056 20.2443 141.947 20.0265 141.729 19.875C141.512 19.7235 141.232 19.6477 140.891 19.6477C140.517 19.6477 140.212 19.7306 139.975 19.8963C139.743 20.0573 139.603 20.3059 139.556 20.642H135.948C135.996 19.9792 136.206 19.3684 136.58 18.8097C136.959 18.2462 137.511 17.7964 138.235 17.4602C138.96 17.1193 139.864 16.9489 140.948 16.9489C141.729 16.9489 142.43 17.0412 143.05 17.2259C143.671 17.4058 144.199 17.6591 144.634 17.9858C145.07 18.3078 145.401 18.6866 145.629 19.1222C145.861 19.553 145.977 20.0218 145.977 20.5284V28H142.312V26.4659H142.227C142.009 26.8731 141.744 27.2022 141.431 27.4531C141.123 27.7041 140.771 27.8864 140.373 28C139.98 28.1136 139.547 28.1705 139.073 28.1705ZM140.352 25.6989C140.65 25.6989 140.929 25.6373 141.19 25.5142C141.455 25.3911 141.67 25.2135 141.836 24.9815C142.002 24.7495 142.085 24.4678 142.085 24.1364V23.2273C141.98 23.2699 141.869 23.3101 141.751 23.348C141.637 23.3859 141.514 23.4214 141.381 23.4545C141.254 23.4877 141.116 23.5185 140.969 23.5469C140.827 23.5753 140.678 23.6013 140.522 23.625C140.219 23.6723 139.97 23.7505 139.776 23.8594C139.587 23.9635 139.445 24.0938 139.35 24.25C139.26 24.4015 139.215 24.572 139.215 24.7614C139.215 25.0644 139.322 25.2964 139.535 25.4574C139.748 25.6184 140.02 25.6989 140.352 25.6989Z" fill="white"/>
</svg>
